<?xml version="1.0"?>
<svg xmlns="http://www.w3.org/2000/svg" xmlns:xlink="http://www.w3.org/1999/xlink" xmlns:svgjs="http://svgjs.com/svgjs" version="1.1" width="512" height="512" x="0" y="0" viewBox="0 0 41.712 41.712" style="enable-background:new 0 0 512 512" xml:space="preserve" class=""><circle r="20.856" cx="20.856" cy="20.856" fill="#cee3b4" shape="circle"/><g transform="matrix(0.5499999999999999,0,0,0.5499999999999999,9.385199546813965,9.385200190544127)">
<path xmlns="http://www.w3.org/2000/svg" style="" d="M31.586,21.8c0.444-0.444,0.444-1.143,0-1.587c-0.429-0.444-1.143-0.444-1.571,0l-8.047,8.032V1.706  c0-0.619-0.492-1.127-1.111-1.127c-0.619,0-1.127,0.508-1.127,1.127v26.539l-8.031-8.032c-0.444-0.444-1.159-0.444-1.587,0  c-0.444,0.444-0.444,1.143,0,1.587l9.952,9.952c0.429,0.429,1.143,0.429,1.587,0L31.586,21.8z M39.474,29.086  c0-0.619,0.492-1.111,1.111-1.111c0.619,0,1.127,0.492,1.127,1.111v10.92c0,0.619-0.508,1.127-1.127,1.127H1.111  C0.492,41.133,0,40.625,0,40.006v-10.92c0-0.619,0.492-1.111,1.111-1.111s1.127,0.492,1.127,1.111v9.809h37.236V29.086z" fill="#429419" data-original="#1e201d" class=""/>
<g xmlns="http://www.w3.org/2000/svg">
</g>
<g xmlns="http://www.w3.org/2000/svg">
</g>
<g xmlns="http://www.w3.org/2000/svg">
</g>
<g xmlns="http://www.w3.org/2000/svg">
</g>
<g xmlns="http://www.w3.org/2000/svg">
</g>
<g xmlns="http://www.w3.org/2000/svg">
</g>
<g xmlns="http://www.w3.org/2000/svg">
</g>
<g xmlns="http://www.w3.org/2000/svg">
</g>
<g xmlns="http://www.w3.org/2000/svg">
</g>
<g xmlns="http://www.w3.org/2000/svg">
</g>
<g xmlns="http://www.w3.org/2000/svg">
</g>
<g xmlns="http://www.w3.org/2000/svg">
</g>
<g xmlns="http://www.w3.org/2000/svg">
</g>
<g xmlns="http://www.w3.org/2000/svg">
</g>
<g xmlns="http://www.w3.org/2000/svg">
</g>
</g></svg>
